<?xml version="1.0" encoding="UTF-8" standalone="no"?>
<!-- Created with Inkscape (http://www.inkscape.org/) -->

<svg
   xmlns:dc="http://purl.org/dc/elements/1.1/"
   xmlns:cc="http://creativecommons.org/ns#"
   xmlns:rdf="http://www.w3.org/1999/02/22-rdf-syntax-ns#"
   xmlns:svg="http://www.w3.org/2000/svg"
   xmlns="http://www.w3.org/2000/svg"
   xmlns:sodipodi="http://sodipodi.sourceforge.net/DTD/sodipodi-0.dtd"
   xmlns:inkscape="http://www.inkscape.org/namespaces/inkscape"
   id="svg2985"
   version="1.1"
   inkscape:version="0.48.4 r9939"
   width="201.38097"
   height="171.05548"
   xml:space="preserve"
   sodipodi:docname="One Logic Logo_Inkscape.svg.2014_11_16_17_45_03.0.svg"><metadata
     id="metadata2991"><rdf:RDF><cc:Work
         rdf:about=""><dc:format>image/svg+xml</dc:format><dc:type
           rdf:resource="http://purl.org/dc/dcmitype/StillImage" /><dc:title /></cc:Work></rdf:RDF></metadata><defs
     id="defs2989"><clipPath
       clipPathUnits="userSpaceOnUse"
       id="clipPath2999"><path
         d="m 0,0 419.528,0 0,595.276 L 0,595.276 0,0 z"
         id="path3001"
         inkscape:connector-curvature="0" /></clipPath></defs><sodipodi:namedview
     pagecolor="#ffffff"
     bordercolor="#666666"
     borderopacity="1"
     objecttolerance="10"
     gridtolerance="10"
     guidetolerance="10"
     inkscape:pageopacity="0"
     inkscape:pageshadow="2"
     inkscape:window-width="1873"
     inkscape:window-height="1056"
     id="namedview2987"
     showgrid="false"
     inkscape:zoom="2.5373106"
     inkscape:cx="-18.982817"
     inkscape:cy="79.379768"
     inkscape:window-x="47"
     inkscape:window-y="24"
     inkscape:window-maximized="1"
     inkscape:current-layer="g2993"
     fit-margin-top="0"
     fit-margin-left="0"
     fit-margin-right="0"
     fit-margin-bottom="0" /><g
     id="g2993"
     inkscape:groupmode="layer"
     inkscape:label="One Logic Logo"
     transform="matrix(1.25,0,0,-1.25,-207.40376,690.24547)"><g
       id="g2995"
       transform="matrix(0.61490604,0,0,0.61490604,119.73237,232.34851)"
       style="fill:#ffffff;fill-opacity:1"
       inkscape:export-filename="Z:\Vorlagen\Corporate Identity\One Logic Logo\Logo_weiß_grün_500px.png"
       inkscape:export-xdpi="174.45935"
       inkscape:export-ydpi="174.45935"><g
         id="g2997"
         clip-path="url(#clipPath2999)"
         style="fill:#ffffff;fill-opacity:1"><g
           id="g3003"
           transform="translate(82.5492,310.1451)"
           style="fill:#ffffff;fill-opacity:1"><path
             d="m 0,0 c 0.311,-1.257 0.805,-2.389 1.486,-3.394 0.68,-1.006 1.568,-1.812 2.662,-2.418 1.094,-0.606 2.425,-0.909 3.993,-0.909 1.567,0 2.898,0.303 3.993,0.909 1.094,0.606 1.981,1.412 2.662,2.418 0.68,1.005 1.175,2.137 1.486,3.394 0.31,1.257 0.466,2.551 0.466,3.882 0,1.39 -0.156,2.735 -0.466,4.037 -0.311,1.301 -0.806,2.462 -1.486,3.483 -0.681,1.02 -1.568,1.833 -2.662,2.44 -1.095,0.606 -2.426,0.909 -3.993,0.909 -1.568,0 -2.899,-0.303 -3.993,-0.909 C 3.054,13.235 2.166,12.422 1.486,11.402 0.805,10.381 0.311,9.22 0,7.919 -0.311,6.617 -0.466,5.272 -0.466,3.882 -0.466,2.551 -0.311,1.257 0,0 m -6.366,10.47 c 0.709,2.026 1.73,3.793 3.061,5.302 1.331,1.508 2.965,2.691 4.902,3.549 1.937,0.857 4.118,1.287 6.544,1.287 2.455,0 4.643,-0.43 6.566,-1.287 1.922,-0.858 3.549,-2.041 4.88,-3.549 1.331,-1.509 2.351,-3.276 3.061,-5.302 0.71,-2.026 1.065,-4.222 1.065,-6.588 0,-2.307 -0.355,-4.459 -1.065,-6.455 -0.71,-1.997 -1.73,-3.734 -3.061,-5.213 -1.331,-1.479 -2.958,-2.64 -4.88,-3.483 -1.923,-0.843 -4.111,-1.264 -6.566,-1.264 -2.426,0 -4.607,0.421 -6.544,1.264 -1.937,0.843 -3.571,2.004 -4.902,3.483 -1.331,1.479 -2.352,3.216 -3.061,5.213 -0.71,1.996 -1.065,4.148 -1.065,6.455 0,2.366 0.355,4.562 1.065,6.588 m 42.856,9.383 13.221,-21.25 0.089,0 0,21.25 6.521,0 0,-31.676 -6.965,0 -13.176,21.206 -0.089,0 0,-21.206 -6.522,0 0,31.676 6.921,0 z m 50.199,0 0,-5.856 -16.726,0 0,-6.788 15.35,0 0,-5.412 -15.35,0 0,-7.764 17.081,0 0,-5.856 -24.046,0 0,31.676 23.691,0 z m 34.338,0 0,-25.82 15.439,0 0,-5.856 -22.404,0 0,31.676 6.965,0 z M 147.534,0 c 0.311,-1.257 0.806,-2.389 1.487,-3.394 0.68,-1.006 1.567,-1.812 2.661,-2.418 1.094,-0.606 2.425,-0.909 3.993,-0.909 1.568,0 2.899,0.303 3.993,0.909 1.094,0.606 1.981,1.412 2.662,2.418 0.68,1.005 1.176,2.137 1.486,3.394 0.311,1.257 0.466,2.551 0.466,3.882 0,1.39 -0.155,2.735 -0.466,4.037 -0.31,1.301 -0.806,2.462 -1.486,3.483 -0.681,1.02 -1.568,1.833 -2.662,2.44 -1.094,0.606 -2.425,0.909 -3.993,0.909 -1.568,0 -2.899,-0.303 -3.993,-0.909 -1.094,-0.607 -1.981,-1.42 -2.661,-2.44 -0.681,-1.021 -1.176,-2.182 -1.487,-3.483 -0.31,-1.302 -0.465,-2.647 -0.465,-4.037 0,-1.331 0.155,-2.625 0.465,-3.882 m -6.366,10.47 c 0.71,2.026 1.73,3.793 3.061,5.302 1.331,1.508 2.965,2.691 4.902,3.549 1.937,0.857 4.119,1.287 6.544,1.287 2.455,0 4.643,-0.43 6.566,-1.287 1.923,-0.858 3.55,-2.041 4.88,-3.549 1.331,-1.509 2.352,-3.276 3.062,-5.302 0.71,-2.026 1.064,-4.222 1.064,-6.588 0,-2.307 -0.354,-4.459 -1.064,-6.455 -0.71,-1.997 -1.731,-3.734 -3.062,-5.213 -1.33,-1.479 -2.957,-2.64 -4.88,-3.483 -1.923,-0.843 -4.111,-1.264 -6.566,-1.264 -2.425,0 -4.607,0.421 -6.544,1.264 -1.937,0.843 -3.571,2.004 -4.902,3.483 -1.331,1.479 -2.351,3.216 -3.061,5.213 -0.71,1.996 -1.065,4.148 -1.065,6.455 0,2.366 0.355,4.562 1.065,6.588 m 55.545,-22.049 c -1.509,-0.636 -3.032,-0.954 -4.57,-0.954 -2.425,0 -4.607,0.421 -6.544,1.264 -1.937,0.843 -3.571,2.004 -4.902,3.483 -1.331,1.479 -2.351,3.216 -3.061,5.213 -0.71,1.996 -1.065,4.148 -1.065,6.455 0,2.366 0.355,4.562 1.065,6.588 0.71,2.026 1.73,3.793 3.061,5.302 1.331,1.508 2.965,2.691 4.902,3.549 1.937,0.857 4.119,1.287 6.544,1.287 1.626,0 3.201,-0.245 4.725,-0.733 1.523,-0.488 2.898,-1.205 4.126,-2.151 1.227,-0.947 2.24,-2.115 3.039,-3.505 0.799,-1.391 1.287,-2.988 1.464,-4.791 l -6.655,0 c -0.414,1.774 -1.213,3.105 -2.395,3.992 -1.184,0.888 -2.618,1.331 -4.304,1.331 -1.568,0 -2.899,-0.303 -3.993,-0.909 -1.094,-0.607 -1.981,-1.42 -2.662,-2.44 -0.68,-1.021 -1.175,-2.182 -1.486,-3.483 -0.31,-1.302 -0.466,-2.647 -0.466,-4.037 0,-1.331 0.156,-2.625 0.466,-3.882 0.311,-1.257 0.806,-2.389 1.486,-3.394 0.681,-1.006 1.568,-1.812 2.662,-2.418 1.094,-0.606 2.425,-0.909 3.993,-0.909 2.307,0 4.089,0.583 5.346,1.752 1.257,1.168 1.989,2.862 2.196,5.08 l -7.009,0 0,5.191 13.309,0 0,-17.125 -4.436,0 -0.71,3.593 c -1.242,-1.597 -2.618,-2.714 -4.126,-3.349 m 22.483,-0.244 -6.965,0 0,31.677 6.965,0 0,-31.677 z m 27.564,23.225 c -0.414,0.665 -0.931,1.249 -1.553,1.752 -0.621,0.503 -1.324,0.894 -2.107,1.176 -0.784,0.281 -1.605,0.421 -2.462,0.421 -1.568,0 -2.899,-0.303 -3.993,-0.909 -1.095,-0.607 -1.982,-1.42 -2.662,-2.44 -0.681,-1.021 -1.176,-2.182 -1.486,-3.483 -0.311,-1.302 -0.466,-2.647 -0.466,-4.037 0,-1.331 0.155,-2.625 0.466,-3.882 0.31,-1.257 0.805,-2.389 1.486,-3.394 0.68,-1.006 1.567,-1.812 2.662,-2.418 1.094,-0.606 2.425,-0.909 3.993,-0.909 2.129,0 3.793,0.65 4.991,1.952 1.198,1.301 1.93,3.017 2.196,5.146 l 6.743,0 c -0.177,-1.982 -0.636,-3.771 -1.375,-5.368 -0.74,-1.597 -1.716,-2.958 -2.928,-4.082 -1.213,-1.124 -2.633,-1.981 -4.259,-2.573 -1.627,-0.591 -3.416,-0.887 -5.368,-0.887 -2.426,0 -4.607,0.421 -6.544,1.264 -1.938,0.843 -3.571,2.004 -4.902,3.483 -1.331,1.479 -2.352,3.216 -3.062,5.213 -0.709,1.996 -1.064,4.148 -1.064,6.455 0,2.366 0.355,4.562 1.064,6.588 0.71,2.026 1.731,3.793 3.062,5.302 1.331,1.508 2.964,2.691 4.902,3.549 1.937,0.857 4.118,1.287 6.544,1.287 1.745,0 3.394,-0.252 4.946,-0.755 1.553,-0.503 2.943,-1.235 4.171,-2.196 1.227,-0.961 2.24,-2.151 3.039,-3.571 0.798,-1.42 1.301,-3.047 1.508,-4.88 l -6.743,0 c -0.119,0.798 -0.385,1.53 -0.799,2.196"
             style="fill:#1cce28;fill-opacity:1;fill-rule:nonzero;stroke:none"
             id="path3005"
             inkscape:connector-curvature="0" /></g><g
           id="g3007"
           transform="translate(172.2343,405.7493)"
           style="fill:#ffffff;fill-opacity:1"><path
             d="M 0,0 54.196,82.72 75.114,70.994 89.56,91.517 c -14.31,14.138 -33.944,22.891 -55.649,22.891 -43.76,0 -79.229,-35.474 -79.229,-79.231 0,-5.238 0.546,-10.343 1.521,-15.297 L -21.391,19.87 0,0 z"
             style="fill:#1cce28;fill-opacity:1;fill-rule:nonzero;stroke:none"
             id="path3009"
             inkscape:connector-curvature="0" /></g><g
           id="g3011"
           transform="translate(285.3766,440.9263)"
           style="fill:#ffffff;fill-opacity:1"><path
             d="m 0,0 c 0,19.037 -6.725,36.498 -17.912,50.161 l -16.947,-24.804 -21.235,10.776 -55.256,-84.809 -27.189,24.861 -16.267,0 c 10.108,-32.116 40.115,-55.416 75.575,-55.416 C -35.471,-79.231 0,-43.756 0,0 m -34.859,-3.232 c 0,-8.005 -6.48,-14.492 -14.488,-14.492 -8.001,0 -14.489,6.487 -14.489,14.492 0,8.005 6.488,14.495 14.489,14.495 8.008,0 14.488,-6.49 14.488,-14.495"
             style="fill:#1cce28;fill-opacity:1;fill-rule:nonzero;stroke:none"
             id="path3013"
             inkscape:connector-curvature="0" /></g></g></g></g></svg>